<mxfile host="app.diagrams.net" modified="2020-11-09T12:02:32.495Z" agent="5.0 (Windows NT 6.1; Win64; x64) AppleWebKit/537.36 (KHTML, like Gecko) Chrome/86.0.4240.183 Safari/537.36" etag="E27so0ArASUCfJH8FSJl" version="13.8.9" type="github">
  <diagram id="zhLbgkHkbR8zb588AUiM" name="Page-1">
    <mxGraphModel dx="948" dy="614" grid="1" gridSize="10" guides="1" tooltips="1" connect="1" arrows="1" fold="1" page="1" pageScale="1" pageWidth="827" pageHeight="1169" math="0" shadow="0">
      <root>
        <mxCell id="0" />
        <mxCell id="1" parent="0" />
        <mxCell id="CeERkmaq7KShqWjHdc5n-2" value="Form1" style="rounded=0;whiteSpace=wrap;html=1;" vertex="1" parent="1">
          <mxGeometry x="350" y="370" width="120" height="60" as="geometry" />
        </mxCell>
        <mxCell id="CeERkmaq7KShqWjHdc5n-7" value="main menu" style="rounded=0;whiteSpace=wrap;html=1;" vertex="1" parent="1">
          <mxGeometry x="230" y="490" width="120" height="60" as="geometry" />
        </mxCell>
        <mxCell id="CeERkmaq7KShqWjHdc5n-8" value="Файл" style="rounded=0;whiteSpace=wrap;html=1;" vertex="1" parent="1">
          <mxGeometry x="230" y="600" width="120" height="60" as="geometry" />
        </mxCell>
        <mxCell id="CeERkmaq7KShqWjHdc5n-9" value="" style="endArrow=none;html=1;entryX=0.5;entryY=1;entryDx=0;entryDy=0;exitX=0.5;exitY=0;exitDx=0;exitDy=0;" edge="1" parent="1" source="CeERkmaq7KShqWjHdc5n-8" target="CeERkmaq7KShqWjHdc5n-7">
          <mxGeometry width="50" height="50" relative="1" as="geometry">
            <mxPoint x="380" y="550" as="sourcePoint" />
            <mxPoint x="430" y="500" as="targetPoint" />
          </mxGeometry>
        </mxCell>
        <mxCell id="CeERkmaq7KShqWjHdc5n-10" value="" style="endArrow=none;html=1;entryX=0.5;entryY=1;entryDx=0;entryDy=0;exitX=0.5;exitY=0;exitDx=0;exitDy=0;" edge="1" parent="1" source="CeERkmaq7KShqWjHdc5n-7">
          <mxGeometry width="50" height="50" relative="1" as="geometry">
            <mxPoint x="409.5" y="500" as="sourcePoint" />
            <mxPoint x="409.5" y="430" as="targetPoint" />
          </mxGeometry>
        </mxCell>
        <mxCell id="CeERkmaq7KShqWjHdc5n-12" value="" style="endArrow=none;html=1;entryX=0.5;entryY=1;entryDx=0;entryDy=0;exitX=0.5;exitY=0;exitDx=0;exitDy=0;" edge="1" parent="1">
          <mxGeometry width="50" height="50" relative="1" as="geometry">
            <mxPoint x="289.57999999999987" y="710" as="sourcePoint" />
            <mxPoint x="289.57999999999987" y="660" as="targetPoint" />
          </mxGeometry>
        </mxCell>
        <mxCell id="CeERkmaq7KShqWjHdc5n-13" value="Звіт" style="rounded=0;whiteSpace=wrap;html=1;" vertex="1" parent="1">
          <mxGeometry x="230" y="710" width="120" height="60" as="geometry" />
        </mxCell>
        <mxCell id="CeERkmaq7KShqWjHdc5n-14" value="Справка" style="rounded=0;whiteSpace=wrap;html=1;" vertex="1" parent="1">
          <mxGeometry x="230" y="830" width="120" height="60" as="geometry" />
        </mxCell>
        <mxCell id="CeERkmaq7KShqWjHdc5n-15" value="" style="endArrow=none;html=1;entryX=0.5;entryY=1;entryDx=0;entryDy=0;exitX=0.5;exitY=0;exitDx=0;exitDy=0;" edge="1" parent="1" source="CeERkmaq7KShqWjHdc5n-14" target="CeERkmaq7KShqWjHdc5n-13">
          <mxGeometry width="50" height="50" relative="1" as="geometry">
            <mxPoint x="310" y="880" as="sourcePoint" />
            <mxPoint x="360" y="830" as="targetPoint" />
          </mxGeometry>
        </mxCell>
        <mxCell id="CeERkmaq7KShqWjHdc5n-16" value="Додати" style="rounded=0;whiteSpace=wrap;html=1;" vertex="1" parent="1">
          <mxGeometry x="520" y="615" width="110" height="30" as="geometry" />
        </mxCell>
        <mxCell id="CeERkmaq7KShqWjHdc5n-17" value="" style="endArrow=none;html=1;entryX=0;entryY=0.5;entryDx=0;entryDy=0;" edge="1" parent="1" target="CeERkmaq7KShqWjHdc5n-16">
          <mxGeometry width="50" height="50" relative="1" as="geometry">
            <mxPoint x="350" y="630" as="sourcePoint" />
            <mxPoint x="400" y="580" as="targetPoint" />
          </mxGeometry>
        </mxCell>
        <mxCell id="CeERkmaq7KShqWjHdc5n-18" value="Редагувати" style="rounded=0;whiteSpace=wrap;html=1;" vertex="1" parent="1">
          <mxGeometry x="520" y="660" width="110" height="30" as="geometry" />
        </mxCell>
        <mxCell id="CeERkmaq7KShqWjHdc5n-19" value="Видалити" style="rounded=0;whiteSpace=wrap;html=1;" vertex="1" parent="1">
          <mxGeometry x="520" y="700" width="110" height="30" as="geometry" />
        </mxCell>
        <mxCell id="CeERkmaq7KShqWjHdc5n-20" value="Вийти" style="rounded=0;whiteSpace=wrap;html=1;" vertex="1" parent="1">
          <mxGeometry x="520" y="740" width="110" height="30" as="geometry" />
        </mxCell>
        <mxCell id="CeERkmaq7KShqWjHdc5n-21" value="" style="endArrow=none;html=1;entryX=0.5;entryY=1;entryDx=0;entryDy=0;exitX=0.5;exitY=0;exitDx=0;exitDy=0;" edge="1" parent="1" source="CeERkmaq7KShqWjHdc5n-18" target="CeERkmaq7KShqWjHdc5n-16">
          <mxGeometry width="50" height="50" relative="1" as="geometry">
            <mxPoint x="390" y="760" as="sourcePoint" />
            <mxPoint x="440" y="710" as="targetPoint" />
          </mxGeometry>
        </mxCell>
        <mxCell id="CeERkmaq7KShqWjHdc5n-22" value="" style="endArrow=none;html=1;exitX=0.5;exitY=0;exitDx=0;exitDy=0;" edge="1" parent="1">
          <mxGeometry width="50" height="50" relative="1" as="geometry">
            <mxPoint x="574.86" y="700" as="sourcePoint" />
            <mxPoint x="575" y="690" as="targetPoint" />
          </mxGeometry>
        </mxCell>
        <mxCell id="CeERkmaq7KShqWjHdc5n-23" value="" style="endArrow=none;html=1;exitX=0.5;exitY=0;exitDx=0;exitDy=0;" edge="1" parent="1">
          <mxGeometry width="50" height="50" relative="1" as="geometry">
            <mxPoint x="574.9300000000001" y="740" as="sourcePoint" />
            <mxPoint x="575.07" y="730" as="targetPoint" />
          </mxGeometry>
        </mxCell>
      </root>
    </mxGraphModel>
  </diagram>
</mxfile>
